<svg viewBox="0 0 200 200" xmlns="http://www.w3.org/2000/svg">
  <path fill="#F1C21B" d="M34.6,-59.2C46.3,-53.2,58.3,-46.9,65.2,-36.9C72.1,-27,74.1,-13.5,75.1,0.6C76,14.6,76,29.2,69.9,40.6C63.7,51.9,51.5,59.9,38.8,65.9C26.1,71.9,13.1,75.8,-0.3,76.4C-13.8,77,-27.5,74.3,-41.3,69C-55.2,63.6,-69.1,55.8,-75.8,43.8C-82.5,31.9,-82.1,16,-78.8,1.9C-75.5,-12.1,-69.3,-24.3,-62.5,-36.1C-55.7,-48,-48.4,-59.6,-37.9,-66.3C-27.4,-72.9,-13.7,-74.5,-1.1,-72.6C11.5,-70.6,22.9,-65.1,34.6,-59.2Z" transform="translate(100 100)" />
</svg>